<svg id="Layer_1" data-name="Layer 1" xmlns="http://www.w3.org/2000/svg" viewBox="0 0 200 200"><defs><style>.cls-1{fill:#27203b;}</style></defs><title>Hadean Icon</title><path class="cls-1" d="M171.63,155.42l-67-116.13a5.29,5.29,0,0,0-9.16,0l-67,116.13A5.29,5.29,0,0,0,33,163.36h134.1A5.29,5.29,0,0,0,171.63,155.42ZM46.93,142.84l20.81-36a1.24,1.24,0,0,1,1.69-.46l20.82,12a1.24,1.24,0,0,1,0,2.14l-41.63,24A1.24,1.24,0,0,1,46.93,142.84Zm49.12,9.6a1.24,1.24,0,0,1-1.24,1.24H53.18a1.24,1.24,0,0,1-.61-2.31l41.63-24a1.24,1.24,0,0,1,1.85,1.07Zm0-42a1.23,1.23,0,0,1-1.85,1.07l-20.82-12a1.24,1.24,0,0,1-.45-1.69l20.81-36a1.24,1.24,0,0,1,2.31.62ZM104,62.37a1.24,1.24,0,0,1,2.31-.61l20.81,36a1.24,1.24,0,0,1-.45,1.69l-20.81,12a1.24,1.24,0,0,1-1.86-1.07Zm42.87,91.31H105.19a1.25,1.25,0,0,1-1.24-1.24v-24a1.24,1.24,0,0,1,1.86-1.07l41.62,24A1.24,1.24,0,0,1,146.82,153.68Zm4.56-9.15-41.63-24a1.24,1.24,0,0,1,0-2.14l20.82-12a1.24,1.24,0,0,1,1.69.46l20.81,36.05A1.24,1.24,0,0,1,151.38,144.53Z"/></svg>